#!OML:ASF H:\Dans Jumps\Project 1\Capture day 1\Session 1\subject.ASF
:FULLY-SPECIFIED
:DEGREES
380
root 0.442956 13.9286 -16.225 27.2737 -1.02861 -1.17987
lowerback 29.7176 0.725004 -0.537871
upperback 9.67709 0.919153 2.17557
thorax -5.48888 0.393005 2.4198
lowerneck -21.3841 0.433221 -1.72703
upperneck 10.4782 1.21204 -0.837167
head 6.64848 0.432737 0.14395
rclavicle 1.13307e-014 1.37161e-014
rhumerus -38.8423 -16.4034 -71.647
rradius 24.1884
rwrist 23.252
rhand -21.6152 -25.6286
rfingers 7.12502
rthumb 4.78034 -55.5546
lclavicle 1.13307e-014 1.37161e-014
lhumerus -30.6062 17.6833 74.4743
lradius 8.43506
lwrist -1.92908
lhand -26.5224 -5.74475
lfingers 7.12502
lthumb 0.0411512 24.235
rfemur -81.1299 -2.99959 21.4577
rtibia 85.0884
rfoot -30.6103 -12.8492
rtoes 0.497124
lfemur -80.4346 6.89517 -23.23
ltibia 84.3889
lfoot -27.7449 16.0489
ltoes -1.5886
381
root 0.434344 13.9015 -16.1866 27.0956 -0.920058 -1.162
lowerback 29.7408 0.714957 -0.525504
upperback 9.50174 0.916761 2.19904
thorax -5.69738 0.395228 2.43978
lowerneck -21.5631 0.415398 -1.70989
upperneck 10.5842 1.18867 -0.83623
head 6.7119 0.420427 0.139511
rclavicle 9.93923e-015 -7.55382e-015
rhumerus -37.2541 -16 -72.5385
rradius 24.9435
rwrist 22.5303
rhand -22.0171 -25.7682
rfingers 7.12502
rthumb 4.3923 -55.7026
lclavicle 9.93923e-015 -7.55382e-015
lhumerus -28.938 19.0758 74.5394
lradius 9.18446
lwrist -2.32386
lhand -26.8471 -6.30813
lfingers 7.12502
lthumb -0.272454 23.6714
rfemur -80.9526 -2.96111 21.4197
rtibia 85.4721
rfoot -30.7341 -13.1078
rtoes 0.629506
lfemur -80.2514 6.78133 -23.0922
ltibia 84.7567
lfoot -27.9362 16.139
ltoes -1.36242
382
root 0.425443 13.8756 -16.1457 26.8834 -0.799757 -1.139
lowerback 29.74 0.699964 -0.525696
upperback 9.32594 0.905129 2.22497
thorax -5.89502 0.393018 2.47293
lowerneck -21.7434 0.403344 -1.69012
upperneck 10.7159 1.17163 -0.829163
head 6.78396 0.411603 0.137424
rclavicle -4.17448e-015 2.78299e-015
rhumerus -35.5504 -15.4901 -73.4579
rradius 25.8019
rwrist 21.8186
rhand -22.3095 -25.8254
rfingers 7.12502
rthumb 4.10994 -55.7655
lclavicle -4.17448e-015 2.78299e-015
lhumerus -27.3133 20.4799 74.6621
lradius 10.1955
lwrist -2.896
lhand -27.1868 -7.02982
lfingers 7.12502
lthumb -0.600541 22.9491
rfemur -80.7206 -2.95319 21.3938
rtibia 85.847
rfoot -30.8379 -13.4069
rtoes 0.723794
lfemur -80.0124 6.6735 -22.9604
ltibia 85.1112
lfoot -28.1274 16.2382
ltoes -1.22034
383
root 0.416172 13.8505 -16.1024 26.6447 -0.67418 -1.10698
lowerback 29.714 0.682546 -0.549307
upperback 9.14087 0.884335 2.2518
thorax -6.0912 0.38662 2.52381
lowerneck -21.9088 0.39605 -1.6762
upperneck 10.8653 1.15984 -0.805735
head 6.8594 0.406522 0.142245
rclavicle -5.96354e-015 -1.74931e-014
rhumerus -33.7542 -14.884 -74.3771
rradius 26.7707
rwrist 21.0007
rhand -22.4943 -25.7753
rfingers 7.12502
rthumb 3.93145 -55.7188
lclavicle -5.96354e-015 -1.74931e-014
lhumerus -25.1416 18.3935 76.5959
lradius 11.4801
lwrist 0.239288
lhand -28.1 -7.57439
lfingers 7.12502
lthumb -1.48247 22.4002
rfemur -80.4436 -2.9746 21.3748
rtibia 86.2164
rfoot -30.9355 -13.7251
rtoes 0.821508
lfemur -79.7281 6.57735 -22.8438
ltibia 85.4532
lfoot -28.3251 16.3525
ltoes -1.20671
384
root 0.406501 13.8262 -16.0569 26.385 -0.544998 -1.06919
lowerback 29.6635 0.662967 -0.594623
upperback 8.94007 0.855137 2.27892
thorax -6.29339 0.376637 2.59058
lowerneck -22.0536 0.390253 -1.67596
upperneck 11.0329 1.14986 -0.758566
head 6.93736 0.403923 0.157269
rclavicle 7.95139e-015 -1.78906e-015
rhumerus -31.8928 -14.218 -75.2655
rradius 27.8582
rwrist 20.0115
rhand -22.6296 -25.6783
rfingers 7.12502
rthumb 3.8008 -55.6242
lclavicle 7.95139e-015 -1.78906e-015
lhumerus -23.1254 16.05 78.3862
lradius 13.063
lwrist 3.55005
lhand -29.0197 -8.07686
lfingers 7.12502
lthumb -2.37069 21.8897
rfemur -80.1263 -3.02322 21.367
rtibia 86.5784
rfoot -31.0321 -14.0561
rtoes 0.915333
lfemur -79.4049 6.49753 -22.7414
ltibia 85.7825
lfoot -28.5348 16.4857
ltoes -1.34601
385
root 0.396524 13.8029 -16.0094 26.1083 -0.419816 -1.02677
lowerback 29.5934 0.642407 -0.663916
upperback 8.71905 0.818288 2.30578
thorax -6.5089 0.363644 2.67373
lowerneck -22.1724 0.402356 -1.67335
upperneck 11.2148 1.16405 -0.719288
head 7.01595 0.412297 0.172258
rclavicle -8.34896e-015 -7.35503e-015
rhumerus -30.0062 -13.476 -76.1221
rradius 29.1174
rwrist 18.8073
rhand -22.7554 -25.5865
rfingers 7.12502
rthumb 3.67934 -55.5344
lclavicle -8.34896e-015 -7.35503e-015
lhumerus -21.2955 13.5236 79.9835
lradius 14.9709
lwrist 7.12438
lhand -29.8939 -8.54941
lfingers 7.12502
lthumb -3.21496 21.4061
rfemur -79.7734 -3.09295 21.3678
rtibia 86.9296
rfoot -31.135 -14.391
rtoes 0.962774
lfemur -79.0476 6.44564 -22.6588
ltibia 86.0978
lfoot -28.7591 16.6367
ltoes -1.6524
386
root 0.386203 13.7809 -15.9598 25.8201 -0.298117 -0.988674
lowerback 29.5029 0.619593 -0.751997
upperback 8.47579 0.77404 2.33742
thorax -6.73946 0.347913 2.7759
lowerneck -22.2798 0.430709 -1.67095
upperneck 11.4235 1.20296 -0.696455
head 7.10179 0.430704 0.184997
rclavicle 1.78906e-015 -1.86858e-014
rhumerus -28.1331 -12.6671 -76.9304
rradius 30.5849
rwrist 17.4156
rhand -22.9719 -25.5092
rfingers 7.12502
rthumb 3.47024 -55.4607
lclavicle 1.78906e-015 -1.86858e-014
lhumerus -19.6719 10.8773 81.3673
lradius 17.2364
lwrist 11.0223
lhand -30.6814 -8.7766
lfingers 7.12502
lthumb -3.97552 21.1661
rfemur -79.3877 -3.17751 21.3852
rtibia 87.2647
rfoot -31.2536 -14.7257
rtoes 0.938077
lfemur -78.6593 6.42478 -22.5837
ltibia 86.3976
lfoot -29.0056 16.7934
ltoes -2.095
387
root 0.375745 13.7611 -15.9082 25.5277 -0.18361 -0.959576
lowerback 29.3873 0.594284 -0.851815
upperback 8.21387 0.723877 2.37356
thorax -6.97858 0.330197 2.89218
lowerneck -22.4128 0.467247 -1.67311
upperneck 11.679 1.25782 -0.687562
head 7.20742 0.454555 0.196143
rclavicle -4.96962e-015 -3.77691e-015
rhumerus -26.306 -11.8114 -77.688
rradius 32.3302
rwrist 15.8558
rhand -23.1879 -25.5367
rfingers 7.12502
rthumb 3.26167 -55.4915
lclavicle -4.96962e-015 -3.77691e-015
lhumerus -18.2476 8.21903 82.5131
lradius 19.8548
lwrist 15.17
lhand -31.5003 -9.16732
lfingers 7.12502
lthumb -4.76623 20.7591
rfemur -78.9715 -3.26942 21.4191
rtibia 87.5726
rfoot -31.3925 -15.0577
rtoes 0.788556
lfemur -78.2422 6.43957 -22.5125
ltibia 86.6748
lfoot -29.273 16.9431
ltoes -2.64525
